<svg width="120" height="120" viewBox="0 0 120 120" fill="none" xmlns="http://www.w3.org/2000/svg">
<path fill-rule="evenodd" clip-rule="evenodd" d="M59.2222 100.03C59.4789 100.01 59.7383 100 60 100C65.5229 100 70 104.477 70 110C70 115.523 65.5229 120 60 120C52.1207 120 44.3185 118.448 37.039 115.433C29.7595 112.418 23.1451 107.998 17.5736 102.426C12.0021 96.8549 7.5825 90.2406 4.56723 82.961C1.55194 75.6815 0 67.8793 0 60L19.9626 60C19.9626 65.2578 20.9982 70.4641 23.0103 75.3216C25.0224 80.1792 27.9715 84.5929 31.6893 88.3107C35.4071 92.0285 39.8208 94.9776 44.6784 96.9897C49.2963 98.9025 54.2293 99.9328 59.2222 100.03Z" fill="#358BEE"/>
<path fill-rule="evenodd" clip-rule="evenodd" d="M19.9702 59.2222C19.9899 59.4789 20 59.7383 20 60C20 65.5229 15.5228 70 10 70C4.47715 70 0 65.5229 0 60C0 52.1207 1.55195 44.3185 4.56723 37.039C7.58251 29.7595 12.0021 23.1451 17.5736 17.5736C23.1451 12.0021 29.7595 7.5825 37.039 4.56723C44.3185 1.55194 52.1207 0 60 0L60 19.9626C54.7422 19.9626 49.5359 20.9982 44.6784 23.0103C39.8208 25.0224 35.4071 27.9715 31.6893 31.6893C27.9715 35.4071 25.0224 39.8208 23.0103 44.6784C21.0975 49.2963 20.0672 54.2293 19.9702 59.2222Z" fill="#6AC8EC"/>
<path fill-rule="evenodd" clip-rule="evenodd" d="M60.7778 19.9702C60.5211 19.9899 60.2617 20 60 20C54.4771 20 50 15.5228 50 10C50 4.47715 54.4771 0 60 0C67.8793 0 75.6815 1.55195 82.961 4.56723C90.2405 7.58251 96.8549 12.0021 102.426 17.5736C107.998 23.1451 112.417 29.7595 115.433 37.039C118.448 44.3185 120 52.1207 120 60L100.037 60C100.037 54.7422 99.0018 49.5359 96.9897 44.6784C94.9776 39.8208 92.0285 35.4071 88.3107 31.6893C84.5929 27.9715 80.1792 25.0224 75.3216 23.0103C70.7037 21.0975 65.7707 20.0672 60.7778 19.9702Z" fill="#7EE6E5"/>
<path d="M70 110C70 104.739 65.937 100.427 60.7776 100.03C65.7705 99.9328 70.7037 98.9025 75.3216 96.9897C80.1792 94.9776 84.5929 92.0285 88.3107 88.3107C92.0285 84.5929 94.9776 80.1792 96.9897 75.3216C98.9025 70.7037 99.9328 65.7707 100.03 60.7778C100.01 60.5211 100 60.2617 100 60C100 54.4771 104.477 50 110 50C115.523 50 120 54.4771 120 60C120 67.8793 118.448 75.6815 115.433 82.961C112.418 90.2405 107.998 96.8549 102.426 102.426C96.8549 107.998 90.2406 112.417 82.961 115.433C75.6815 118.448 67.8793 120 60 120C65.5229 120 70 115.523 70 110Z" fill="#005AF5"/>
<path d="M81.8587 68.6465L81.8501 68.6357L81.8414 68.6249C80.3333 66.7661 78.8523 65.2609 77.3938 64.202C75.9535 63.1563 74.3331 62.4 72.6 62.4C70.6745 62.4 68.6433 63.4113 66.7057 64.7249C65.3124 65.6518 63.8295 66.1 62.2 66.1C60.8134 66.1 59.3988 65.6039 57.9078 64.3854C56.6877 63.3306 56 61.8719 56 59.7C56 57.4594 56.7202 55.9801 57.9939 54.926C59.5457 53.6418 61.063 53.1 62.6 53.1C64.4698 53.1 65.4975 53.5641 66.0834 54.1175L66.2618 54.286L66.4696 54.4166C68.8323 55.9017 71.1625 57 73.2 57C75.0312 57 76.6897 56.2306 78.1333 55.0799C79.5662 53.9377 80.9103 52.3269 82.1918 50.3691C83.7263 48.0302 84.7 45.6481 84.7 43.3C84.7 40.5914 83.2957 38.3887 81.1243 36.7184L81.0797 36.6842L81.0337 36.6519C80.344 36.1692 79.3925 35.5237 78.1868 34.7199L78.1562 34.6995L78.125 34.68L76.525 33.68L76.4965 33.6622L76.4676 33.6452C75.0533 32.8133 73.0441 32.0801 70.5996 31.3997C67.9703 30.5996 65.2677 30.2 62.5 30.2C55.5996 30.2 49.1662 32.6366 43.2528 37.3363C40.1897 39.7293 37.7346 42.8712 35.8597 46.6905C33.9361 50.5413 33 54.8283 33 59.5C33 64.1162 33.9403 68.4235 35.8475 72.3845L35.8515 72.3928L35.8555 72.4011C37.7329 76.2279 40.1923 79.3751 43.2618 81.7708L43.2636 81.7721C49.3573 86.5196 55.8512 89 62.7 89C68.6125 89 73.7804 87.5777 78.0624 84.5979C81.9118 82.271 84.7 79.2654 84.7 75.4C84.7 73.0497 83.544 70.7714 81.8587 68.6465Z" fill="#0F3551" stroke="white" stroke-width="5"/>
</svg>
