<svg width="358" height="120" viewBox="0 0 358 120" fill="none" xmlns="http://www.w3.org/2000/svg">
<path fill-rule="evenodd" clip-rule="evenodd" d="M59.2222 100.03C59.4789 100.01 59.7383 100 60 100C65.5229 100 70 104.477 70 110C70 115.523 65.5229 120 60 120C52.1207 120 44.3185 118.448 37.039 115.433C29.7595 112.418 23.1451 107.998 17.5736 102.426C12.0021 96.8549 7.5825 90.2406 4.56723 82.961C1.55194 75.6815 0 67.8793 0 60L19.9626 60C19.9626 65.2578 20.9982 70.4641 23.0103 75.3216C25.0224 80.1792 27.9715 84.5929 31.6893 88.3107C35.4071 92.0285 39.8208 94.9776 44.6784 96.9897C49.2963 98.9025 54.2293 99.9328 59.2222 100.03Z" fill="#358BEE"/>
<path fill-rule="evenodd" clip-rule="evenodd" d="M19.9702 59.2222C19.9899 59.4789 20 59.7383 20 60C20 65.5229 15.5228 70 10 70C4.47715 70 0 65.5229 0 60C0 52.1207 1.55195 44.3185 4.56723 37.039C7.58251 29.7595 12.0021 23.1451 17.5736 17.5736C23.1451 12.0021 29.7595 7.5825 37.039 4.56723C44.3185 1.55194 52.1207 0 60 0L60 19.9626C54.7422 19.9626 49.5359 20.9982 44.6784 23.0103C39.8208 25.0224 35.4071 27.9715 31.6893 31.6893C27.9715 35.4071 25.0224 39.8208 23.0103 44.6784C21.0975 49.2963 20.0672 54.2293 19.9702 59.2222Z" fill="#6AC8EC"/>
<path fill-rule="evenodd" clip-rule="evenodd" d="M60.7778 19.9702C60.5211 19.9899 60.2617 20 60 20C54.4771 20 50 15.5228 50 10C50 4.47715 54.4771 0 60 0C67.8793 0 75.6815 1.55195 82.961 4.56723C90.2405 7.58251 96.8549 12.0021 102.426 17.5736C107.998 23.1451 112.417 29.7595 115.433 37.039C118.448 44.3185 120 52.1207 120 60L100.037 60C100.037 54.7422 99.0018 49.5359 96.9897 44.6784C94.9776 39.8208 92.0285 35.4071 88.3107 31.6893C84.5929 27.9715 80.1792 25.0224 75.3216 23.0103C70.7037 21.0975 65.7707 20.0672 60.7778 19.9702Z" fill="#7EE6E5"/>
<path d="M70 110C70 104.739 65.937 100.427 60.7776 100.03C65.7705 99.9328 70.7037 98.9025 75.3216 96.9897C80.1792 94.9776 84.5929 92.0285 88.3107 88.3107C92.0285 84.5929 94.9776 80.1792 96.9897 75.3216C98.9025 70.7037 99.9328 65.7707 100.03 60.7778C100.01 60.5211 100 60.2617 100 60C100 54.4771 104.477 50 110 50C115.523 50 120 54.4771 120 60C120 67.8793 118.448 75.6815 115.433 82.961C112.418 90.2405 107.998 96.8549 102.426 102.426C96.8549 107.998 90.2406 112.417 82.961 115.433C75.6815 118.448 67.8793 120 60 120C65.5229 120 70 115.523 70 110Z" fill="#005AF5"/>
<mask id="path-5-outside-1" maskUnits="userSpaceOnUse" x="30.5" y="27.2" width="327" height="66" fill="black">
<rect fill="white" x="30.5" y="27.2" width="327" height="66"/>
<path d="M53.5 59.7C53.5 62.5 54.4333 64.7 56.3 66.3C58.1667 67.8333 60.1333 68.6 62.2 68.6C64.3333 68.6 66.3 68 68.1 66.8C69.9667 65.5333 71.4667 64.9 72.6 64.9C74.6 64.9 77.0333 66.6667 79.9 70.2C81.4333 72.1333 82.2 73.8667 82.2 75.4C82.2 77.9333 80.3667 80.3 76.7 82.5C72.9 85.1667 68.2333 86.5 62.7 86.5C56.5 86.5 50.5333 84.2667 44.8 79.8C42.0667 77.6667 39.8333 74.8333 38.1 71.3C36.3667 67.7 35.5 63.7667 35.5 59.5C35.5 55.1667 36.3667 51.2667 38.1 47.8C39.8333 44.2667 42.0667 41.4333 44.8 39.3C50.3333 34.9 56.2333 32.7 62.5 32.7C65.0333 32.7 67.5 33.0667 69.9 33.8C72.3 34.4667 74.0667 35.1333 75.2 35.8L76.8 36.8C78 37.6 78.9333 38.2333 79.6 38.7C81.3333 40.0333 82.2 41.5667 82.2 43.3C82.2 44.9667 81.5 46.8667 80.1 49C77.7 52.6667 75.4 54.5 73.2 54.5C71.9333 54.5 70.1333 53.7667 67.8 52.3C66.6 51.1667 64.8667 50.6 62.6 50.6C60.4 50.6 58.3333 51.4 56.4 53C54.4667 54.6 53.5 56.8333 53.5 59.7Z"/>
<path d="M122.86 38.9C123.26 35.1667 125.893 33.3 130.76 33.3C133.36 33.3 135.293 33.5 136.56 33.9C137.827 34.3 138.693 35 139.16 36C139.693 37 139.993 37.9 140.06 38.7C140.193 39.4333 140.26 40.5667 140.26 42.1V77.1C140.26 78.6333 140.193 79.8 140.06 80.6C139.993 81.3333 139.727 82.2 139.26 83.2C138.327 84.9333 136.027 85.8 132.36 85.8C128.76 85.8 126.327 85.3667 125.06 84.5C123.86 83.5667 123.16 82.2333 122.96 80.5C120.493 84.0333 116.36 85.8 110.56 85.8C104.827 85.8 99.4935 83.1667 94.5602 77.9C89.6268 72.6333 87.1602 66.5333 87.1602 59.6C87.1602 52.6 89.6268 46.5 94.5602 41.3C99.5602 36.0333 105.027 33.4 110.96 33.4C113.227 33.4 115.293 33.8 117.16 34.6C119.027 35.4 120.327 36.1667 121.06 36.9C121.793 37.5667 122.393 38.2333 122.86 38.9ZM104.66 59.7C104.66 61.9 105.527 63.9 107.26 65.7C108.993 67.4333 111.093 68.3 113.56 68.3C116.027 68.3 118.06 67.4 119.66 65.6C121.327 63.8 122.16 61.8333 122.16 59.7C122.16 57.5 121.36 55.4667 119.76 53.6C118.227 51.7333 116.127 50.8 113.46 50.8C110.86 50.8 108.727 51.7333 107.06 53.6C105.46 55.4667 104.66 57.5 104.66 59.7Z"/>
<path d="M184.03 33.9C185.297 34.3 186.33 35 187.13 36C187.997 36.9333 188.43 38.4667 188.43 40.6C188.43 42.7333 187.797 45.0667 186.53 47.6C185.264 50.1333 183.43 51.4 181.03 51.4C179.83 51.4 178.664 51.1333 177.53 50.6C176.464 50.0667 175.03 49.8 173.23 49.8C171.43 49.8 169.73 50.4333 168.13 51.7C166.597 52.9667 165.83 54.5 165.83 56.3V77.3C165.83 78.8333 165.764 80 165.63 80.8C165.564 81.5333 165.264 82.4 164.73 83.4C163.73 85.1333 161.13 86 156.93 86C153.73 86 151.43 85.4333 150.03 84.3C148.964 83.3667 148.364 81.9333 148.23 80C148.23 79.3333 148.23 78.3667 148.23 77.1V42C148.23 40.4667 148.264 39.3333 148.33 38.6C148.464 37.8 148.764 36.9333 149.23 36C150.164 34.2 152.764 33.3 157.03 33.3C161.03 33.3 163.53 34.0667 164.53 35.6C165.264 36.6667 165.63 37.7667 165.63 38.9C165.964 38.4333 166.43 37.8667 167.03 37.2C167.697 36.5333 169.064 35.6333 171.13 34.5C173.197 33.3667 174.997 32.8 176.53 32.8C178.13 32.8 179.464 32.9 180.53 33.1C181.597 33.2333 182.764 33.5 184.03 33.9Z"/>
<path d="M247.034 34.5C250.5 36.5667 252.234 38.7667 252.234 41.1C252.234 42.4333 251.567 44.2667 250.234 46.6L229.534 82.1C228.867 83.2333 227.8 84.2667 226.334 85.2C224.867 86.0667 223.4 86.5 221.934 86.5C220.534 86.5 219.167 86.1667 217.834 85.5C216.567 84.7667 215.667 84.0333 215.134 83.3L214.234 82.2L193.434 46.6C192.1 44.4 191.434 42.6 191.434 41.2C191.434 38.8 193.167 36.5667 196.634 34.5C199.167 33.0333 201.167 32.3 202.634 32.3C204.1 32.3 205.234 32.7667 206.034 33.7C206.9 34.5667 207.8 35.9 208.734 37.7L221.834 62.9L234.934 37.7C235.667 36.4333 236.2 35.5333 236.534 35C236.934 34.4 237.534 33.8333 238.334 33.3C239.134 32.7 240.2 32.4 241.534 32.4C242.867 32.4 244.7 33.1 247.034 34.5Z"/>
<path d="M305.476 53.4C305.476 57.4667 304.442 60.5 302.376 62.5C300.376 64.4333 298.142 65.4 295.676 65.4H271.976C271.976 67.2667 273.076 68.8333 275.276 70.1C277.476 71.3667 279.676 72 281.876 72C285.742 72 288.776 71.6 290.976 70.8L292.076 70.4C293.676 69.6667 295.009 69.3 296.076 69.3C298.209 69.3 300.042 70.8 301.576 73.8C302.442 75.6 302.876 77.1333 302.876 78.4C302.876 84.3333 295.776 87.3 281.576 87.3C276.642 87.3 272.242 86.4667 268.376 84.8C264.576 83.0667 261.609 80.8 259.476 78C255.276 72.6 253.176 66.5667 253.176 59.9C253.176 51.5 255.876 44.8 261.276 39.8C266.742 34.7333 273.542 32.2 281.676 32.2C290.942 32.2 297.742 35.4667 302.076 42C304.342 45.4667 305.476 49.2667 305.476 53.4ZM284.376 56.3C286.909 56.3 288.176 55.2333 288.176 53.1C288.176 51.5667 287.576 50.3333 286.376 49.4C285.242 48.4667 283.576 48 281.376 48C279.242 48 277.109 48.9 274.976 50.7C272.842 52.4333 271.776 54.3 271.776 56.3H284.376Z"/>
<path d="M347.8 33.9C349.067 34.3 350.1 35 350.9 36C351.767 36.9333 352.2 38.4667 352.2 40.6C352.2 42.7333 351.567 45.0667 350.3 47.6C349.033 50.1333 347.2 51.4 344.8 51.4C343.6 51.4 342.433 51.1333 341.3 50.6C340.233 50.0667 338.8 49.8 337 49.8C335.2 49.8 333.5 50.4333 331.9 51.7C330.367 52.9667 329.6 54.5 329.6 56.3V77.3C329.6 78.8333 329.533 80 329.4 80.8C329.333 81.5333 329.033 82.4 328.5 83.4C327.5 85.1333 324.9 86 320.7 86C317.5 86 315.2 85.4333 313.8 84.3C312.733 83.3667 312.133 81.9333 312 80C312 79.3333 312 78.3667 312 77.1V42C312 40.4667 312.033 39.3333 312.1 38.6C312.233 37.8 312.533 36.9333 313 36C313.933 34.2 316.533 33.3 320.8 33.3C324.8 33.3 327.3 34.0667 328.3 35.6C329.033 36.6667 329.4 37.7667 329.4 38.9C329.733 38.4333 330.2 37.8667 330.8 37.2C331.467 36.5333 332.833 35.6333 334.9 34.5C336.967 33.3667 338.767 32.8 340.3 32.8C341.9 32.8 343.233 32.9 344.3 33.1C345.367 33.2333 346.533 33.5 347.8 33.9Z"/>
</mask>
<path d="M53.5 59.7C53.5 62.5 54.4333 64.7 56.3 66.3C58.1667 67.8333 60.1333 68.6 62.2 68.6C64.3333 68.6 66.3 68 68.1 66.8C69.9667 65.5333 71.4667 64.9 72.6 64.9C74.6 64.9 77.0333 66.6667 79.9 70.2C81.4333 72.1333 82.2 73.8667 82.2 75.4C82.2 77.9333 80.3667 80.3 76.7 82.5C72.9 85.1667 68.2333 86.5 62.7 86.5C56.5 86.5 50.5333 84.2667 44.8 79.8C42.0667 77.6667 39.8333 74.8333 38.1 71.3C36.3667 67.7 35.5 63.7667 35.5 59.5C35.5 55.1667 36.3667 51.2667 38.1 47.8C39.8333 44.2667 42.0667 41.4333 44.8 39.3C50.3333 34.9 56.2333 32.7 62.5 32.7C65.0333 32.7 67.5 33.0667 69.9 33.8C72.3 34.4667 74.0667 35.1333 75.2 35.8L76.8 36.8C78 37.6 78.9333 38.2333 79.6 38.7C81.3333 40.0333 82.2 41.5667 82.2 43.3C82.2 44.9667 81.5 46.8667 80.1 49C77.7 52.6667 75.4 54.5 73.2 54.5C71.9333 54.5 70.1333 53.7667 67.8 52.3C66.6 51.1667 64.8667 50.6 62.6 50.6C60.4 50.6 58.3333 51.4 56.4 53C54.4667 54.6 53.5 56.8333 53.5 59.7Z" fill="#0F3551"/>
<path d="M122.86 38.9C123.26 35.1667 125.893 33.3 130.76 33.3C133.36 33.3 135.293 33.5 136.56 33.9C137.827 34.3 138.693 35 139.16 36C139.693 37 139.993 37.9 140.06 38.7C140.193 39.4333 140.26 40.5667 140.26 42.1V77.1C140.26 78.6333 140.193 79.8 140.06 80.6C139.993 81.3333 139.727 82.2 139.26 83.2C138.327 84.9333 136.027 85.8 132.36 85.8C128.76 85.8 126.327 85.3667 125.06 84.5C123.86 83.5667 123.16 82.2333 122.96 80.5C120.493 84.0333 116.36 85.8 110.56 85.8C104.827 85.8 99.4935 83.1667 94.5602 77.9C89.6268 72.6333 87.1602 66.5333 87.1602 59.6C87.1602 52.6 89.6268 46.5 94.5602 41.3C99.5602 36.0333 105.027 33.4 110.96 33.4C113.227 33.4 115.293 33.8 117.16 34.6C119.027 35.4 120.327 36.1667 121.06 36.9C121.793 37.5667 122.393 38.2333 122.86 38.9ZM104.66 59.7C104.66 61.9 105.527 63.9 107.26 65.7C108.993 67.4333 111.093 68.3 113.56 68.3C116.027 68.3 118.06 67.4 119.66 65.6C121.327 63.8 122.16 61.8333 122.16 59.7C122.16 57.5 121.36 55.4667 119.76 53.6C118.227 51.7333 116.127 50.8 113.46 50.8C110.86 50.8 108.727 51.7333 107.06 53.6C105.46 55.4667 104.66 57.5 104.66 59.7Z" fill="#0F3551"/>
<path d="M184.03 33.9C185.297 34.3 186.33 35 187.13 36C187.997 36.9333 188.43 38.4667 188.43 40.6C188.43 42.7333 187.797 45.0667 186.53 47.6C185.264 50.1333 183.43 51.4 181.03 51.4C179.83 51.4 178.664 51.1333 177.53 50.6C176.464 50.0667 175.03 49.8 173.23 49.8C171.43 49.8 169.73 50.4333 168.13 51.7C166.597 52.9667 165.83 54.5 165.83 56.3V77.3C165.83 78.8333 165.764 80 165.63 80.8C165.564 81.5333 165.264 82.4 164.73 83.4C163.73 85.1333 161.13 86 156.93 86C153.73 86 151.43 85.4333 150.03 84.3C148.964 83.3667 148.364 81.9333 148.23 80C148.23 79.3333 148.23 78.3667 148.23 77.1V42C148.23 40.4667 148.264 39.3333 148.33 38.6C148.464 37.8 148.764 36.9333 149.23 36C150.164 34.2 152.764 33.3 157.03 33.3C161.03 33.3 163.53 34.0667 164.53 35.6C165.264 36.6667 165.63 37.7667 165.63 38.9C165.964 38.4333 166.43 37.8667 167.03 37.2C167.697 36.5333 169.064 35.6333 171.13 34.5C173.197 33.3667 174.997 32.8 176.53 32.8C178.13 32.8 179.464 32.9 180.53 33.1C181.597 33.2333 182.764 33.5 184.03 33.9Z" fill="#0F3551"/>
<path d="M247.034 34.5C250.5 36.5667 252.234 38.7667 252.234 41.1C252.234 42.4333 251.567 44.2667 250.234 46.6L229.534 82.1C228.867 83.2333 227.8 84.2667 226.334 85.2C224.867 86.0667 223.4 86.5 221.934 86.5C220.534 86.5 219.167 86.1667 217.834 85.5C216.567 84.7667 215.667 84.0333 215.134 83.3L214.234 82.2L193.434 46.6C192.1 44.4 191.434 42.6 191.434 41.2C191.434 38.8 193.167 36.5667 196.634 34.5C199.167 33.0333 201.167 32.3 202.634 32.3C204.1 32.3 205.234 32.7667 206.034 33.7C206.9 34.5667 207.8 35.9 208.734 37.7L221.834 62.9L234.934 37.7C235.667 36.4333 236.2 35.5333 236.534 35C236.934 34.4 237.534 33.8333 238.334 33.3C239.134 32.7 240.2 32.4 241.534 32.4C242.867 32.4 244.7 33.1 247.034 34.5Z" fill="#0F3551"/>
<path d="M305.476 53.4C305.476 57.4667 304.442 60.5 302.376 62.5C300.376 64.4333 298.142 65.4 295.676 65.4H271.976C271.976 67.2667 273.076 68.8333 275.276 70.1C277.476 71.3667 279.676 72 281.876 72C285.742 72 288.776 71.6 290.976 70.8L292.076 70.4C293.676 69.6667 295.009 69.3 296.076 69.3C298.209 69.3 300.042 70.8 301.576 73.8C302.442 75.6 302.876 77.1333 302.876 78.4C302.876 84.3333 295.776 87.3 281.576 87.3C276.642 87.3 272.242 86.4667 268.376 84.8C264.576 83.0667 261.609 80.8 259.476 78C255.276 72.6 253.176 66.5667 253.176 59.9C253.176 51.5 255.876 44.8 261.276 39.8C266.742 34.7333 273.542 32.2 281.676 32.2C290.942 32.2 297.742 35.4667 302.076 42C304.342 45.4667 305.476 49.2667 305.476 53.4ZM284.376 56.3C286.909 56.3 288.176 55.2333 288.176 53.1C288.176 51.5667 287.576 50.3333 286.376 49.4C285.242 48.4667 283.576 48 281.376 48C279.242 48 277.109 48.9 274.976 50.7C272.842 52.4333 271.776 54.3 271.776 56.3H284.376Z" fill="#0F3551"/>
<path d="M347.8 33.9C349.067 34.3 350.1 35 350.9 36C351.767 36.9333 352.2 38.4667 352.2 40.6C352.2 42.7333 351.567 45.0667 350.3 47.6C349.033 50.1333 347.2 51.4 344.8 51.4C343.6 51.4 342.433 51.1333 341.3 50.6C340.233 50.0667 338.8 49.8 337 49.8C335.2 49.8 333.5 50.4333 331.9 51.7C330.367 52.9667 329.6 54.5 329.6 56.3V77.3C329.6 78.8333 329.533 80 329.4 80.8C329.333 81.5333 329.033 82.4 328.5 83.4C327.5 85.1333 324.9 86 320.7 86C317.5 86 315.2 85.4333 313.8 84.3C312.733 83.3667 312.133 81.9333 312 80C312 79.3333 312 78.3667 312 77.1V42C312 40.4667 312.033 39.3333 312.1 38.6C312.233 37.8 312.533 36.9333 313 36C313.933 34.2 316.533 33.3 320.8 33.3C324.8 33.3 327.3 34.0667 328.3 35.6C329.033 36.6667 329.4 37.7667 329.4 38.9C329.733 38.4333 330.2 37.8667 330.8 37.2C331.467 36.5333 332.833 35.6333 334.9 34.5C336.967 33.3667 338.767 32.8 340.3 32.8C341.9 32.8 343.233 32.9 344.3 33.1C345.367 33.2333 346.533 33.5 347.8 33.9Z" fill="#0F3551"/>
<path d="M53.5 59.7C53.5 62.5 54.4333 64.7 56.3 66.3C58.1667 67.8333 60.1333 68.6 62.2 68.6C64.3333 68.6 66.3 68 68.1 66.8C69.9667 65.5333 71.4667 64.9 72.6 64.9C74.6 64.9 77.0333 66.6667 79.9 70.2C81.4333 72.1333 82.2 73.8667 82.2 75.4C82.2 77.9333 80.3667 80.3 76.7 82.5C72.9 85.1667 68.2333 86.5 62.7 86.5C56.5 86.5 50.5333 84.2667 44.8 79.8C42.0667 77.6667 39.8333 74.8333 38.1 71.3C36.3667 67.7 35.5 63.7667 35.5 59.5C35.5 55.1667 36.3667 51.2667 38.1 47.8C39.8333 44.2667 42.0667 41.4333 44.8 39.3C50.3333 34.9 56.2333 32.7 62.5 32.7C65.0333 32.7 67.5 33.0667 69.9 33.8C72.3 34.4667 74.0667 35.1333 75.2 35.8L76.8 36.8C78 37.6 78.9333 38.2333 79.6 38.7C81.3333 40.0333 82.2 41.5667 82.2 43.3C82.2 44.9667 81.5 46.8667 80.1 49C77.7 52.6667 75.4 54.5 73.2 54.5C71.9333 54.5 70.1333 53.7667 67.8 52.3C66.6 51.1667 64.8667 50.6 62.6 50.6C60.4 50.6 58.3333 51.4 56.4 53C54.4667 54.6 53.5 56.8333 53.5 59.7Z" stroke="white" stroke-width="10" mask="url(#path-5-outside-1)"/>
<path d="M122.86 38.9C123.26 35.1667 125.893 33.3 130.76 33.3C133.36 33.3 135.293 33.5 136.56 33.9C137.827 34.3 138.693 35 139.16 36C139.693 37 139.993 37.9 140.06 38.7C140.193 39.4333 140.26 40.5667 140.26 42.1V77.1C140.26 78.6333 140.193 79.8 140.06 80.6C139.993 81.3333 139.727 82.2 139.26 83.2C138.327 84.9333 136.027 85.8 132.36 85.8C128.76 85.8 126.327 85.3667 125.06 84.5C123.86 83.5667 123.16 82.2333 122.96 80.5C120.493 84.0333 116.36 85.8 110.56 85.8C104.827 85.8 99.4935 83.1667 94.5602 77.9C89.6268 72.6333 87.1602 66.5333 87.1602 59.6C87.1602 52.6 89.6268 46.5 94.5602 41.3C99.5602 36.0333 105.027 33.4 110.96 33.4C113.227 33.4 115.293 33.8 117.16 34.6C119.027 35.4 120.327 36.1667 121.06 36.9C121.793 37.5667 122.393 38.2333 122.86 38.9ZM104.66 59.7C104.66 61.9 105.527 63.9 107.26 65.7C108.993 67.4333 111.093 68.3 113.56 68.3C116.027 68.3 118.06 67.4 119.66 65.6C121.327 63.8 122.16 61.8333 122.16 59.7C122.16 57.5 121.36 55.4667 119.76 53.6C118.227 51.7333 116.127 50.8 113.46 50.8C110.86 50.8 108.727 51.7333 107.06 53.6C105.46 55.4667 104.66 57.5 104.66 59.7Z" stroke="white" stroke-width="10" mask="url(#path-5-outside-1)"/>
<path d="M184.03 33.9C185.297 34.3 186.33 35 187.13 36C187.997 36.9333 188.43 38.4667 188.43 40.6C188.43 42.7333 187.797 45.0667 186.53 47.6C185.264 50.1333 183.43 51.4 181.03 51.4C179.83 51.4 178.664 51.1333 177.53 50.6C176.464 50.0667 175.03 49.8 173.23 49.8C171.43 49.8 169.73 50.4333 168.13 51.7C166.597 52.9667 165.83 54.5 165.83 56.3V77.3C165.83 78.8333 165.764 80 165.63 80.8C165.564 81.5333 165.264 82.4 164.73 83.4C163.73 85.1333 161.13 86 156.93 86C153.73 86 151.43 85.4333 150.03 84.3C148.964 83.3667 148.364 81.9333 148.23 80C148.23 79.3333 148.23 78.3667 148.23 77.1V42C148.23 40.4667 148.264 39.3333 148.33 38.6C148.464 37.8 148.764 36.9333 149.23 36C150.164 34.2 152.764 33.3 157.03 33.3C161.03 33.3 163.53 34.0667 164.53 35.6C165.264 36.6667 165.63 37.7667 165.63 38.9C165.964 38.4333 166.43 37.8667 167.03 37.2C167.697 36.5333 169.064 35.6333 171.13 34.5C173.197 33.3667 174.997 32.8 176.53 32.8C178.13 32.8 179.464 32.9 180.53 33.1C181.597 33.2333 182.764 33.5 184.03 33.9Z" stroke="white" stroke-width="10" mask="url(#path-5-outside-1)"/>
<path d="M247.034 34.5C250.5 36.5667 252.234 38.7667 252.234 41.1C252.234 42.4333 251.567 44.2667 250.234 46.6L229.534 82.1C228.867 83.2333 227.8 84.2667 226.334 85.2C224.867 86.0667 223.4 86.5 221.934 86.5C220.534 86.5 219.167 86.1667 217.834 85.5C216.567 84.7667 215.667 84.0333 215.134 83.3L214.234 82.2L193.434 46.6C192.1 44.4 191.434 42.6 191.434 41.2C191.434 38.8 193.167 36.5667 196.634 34.5C199.167 33.0333 201.167 32.3 202.634 32.3C204.1 32.3 205.234 32.7667 206.034 33.7C206.9 34.5667 207.8 35.9 208.734 37.7L221.834 62.9L234.934 37.7C235.667 36.4333 236.2 35.5333 236.534 35C236.934 34.4 237.534 33.8333 238.334 33.3C239.134 32.7 240.2 32.4 241.534 32.4C242.867 32.4 244.7 33.1 247.034 34.5Z" stroke="white" stroke-width="10" mask="url(#path-5-outside-1)"/>
<path d="M305.476 53.4C305.476 57.4667 304.442 60.5 302.376 62.5C300.376 64.4333 298.142 65.4 295.676 65.4H271.976C271.976 67.2667 273.076 68.8333 275.276 70.1C277.476 71.3667 279.676 72 281.876 72C285.742 72 288.776 71.6 290.976 70.8L292.076 70.4C293.676 69.6667 295.009 69.3 296.076 69.3C298.209 69.3 300.042 70.8 301.576 73.8C302.442 75.6 302.876 77.1333 302.876 78.4C302.876 84.3333 295.776 87.3 281.576 87.3C276.642 87.3 272.242 86.4667 268.376 84.8C264.576 83.0667 261.609 80.8 259.476 78C255.276 72.6 253.176 66.5667 253.176 59.9C253.176 51.5 255.876 44.8 261.276 39.8C266.742 34.7333 273.542 32.2 281.676 32.2C290.942 32.2 297.742 35.4667 302.076 42C304.342 45.4667 305.476 49.2667 305.476 53.4ZM284.376 56.3C286.909 56.3 288.176 55.2333 288.176 53.1C288.176 51.5667 287.576 50.3333 286.376 49.4C285.242 48.4667 283.576 48 281.376 48C279.242 48 277.109 48.9 274.976 50.7C272.842 52.4333 271.776 54.3 271.776 56.3H284.376Z" stroke="white" stroke-width="10" mask="url(#path-5-outside-1)"/>
<path d="M347.8 33.9C349.067 34.3 350.1 35 350.9 36C351.767 36.9333 352.2 38.4667 352.2 40.6C352.2 42.7333 351.567 45.0667 350.3 47.6C349.033 50.1333 347.2 51.4 344.8 51.4C343.6 51.4 342.433 51.1333 341.3 50.6C340.233 50.0667 338.8 49.8 337 49.8C335.2 49.8 333.5 50.4333 331.9 51.7C330.367 52.9667 329.6 54.5 329.6 56.3V77.3C329.6 78.8333 329.533 80 329.4 80.8C329.333 81.5333 329.033 82.4 328.5 83.4C327.5 85.1333 324.9 86 320.7 86C317.5 86 315.2 85.4333 313.8 84.3C312.733 83.3667 312.133 81.9333 312 80C312 79.3333 312 78.3667 312 77.1V42C312 40.4667 312.033 39.3333 312.1 38.6C312.233 37.8 312.533 36.9333 313 36C313.933 34.2 316.533 33.3 320.8 33.3C324.8 33.3 327.3 34.0667 328.3 35.6C329.033 36.6667 329.4 37.7667 329.4 38.9C329.733 38.4333 330.2 37.8667 330.8 37.2C331.467 36.5333 332.833 35.6333 334.9 34.5C336.967 33.3667 338.767 32.8 340.3 32.8C341.9 32.8 343.233 32.9 344.3 33.1C345.367 33.2333 346.533 33.5 347.8 33.9Z" stroke="white" stroke-width="10" mask="url(#path-5-outside-1)"/>
</svg>
